<svg width="82" height="82" viewBox="0 0 82 82" fill="none" xmlns="http://www.w3.org/2000/svg">
<path d="M49.5012 40.9987C49.5012 45.6939 45.695 49.5 40.9999 49.5C36.3048 49.5 32.4987 45.6939 32.4987 40.9987C32.4987 36.3036 36.3048 32.4975 40.9999 32.4975C45.695 32.4975 49.5012 36.3036 49.5012 40.9987ZM40.9963 12.1719C26.272 12.1719 14.1265 23.2084 12.382 37.461H27.8725C29.4289 31.6711 34.7146 27.4117 40.9963 27.4117C47.278 27.4117 52.5694 31.6711 54.1275 37.461H69.618C67.8726 23.2084 55.7206 12.1719 40.9963 12.1719ZM12.382 44.539C14.1265 58.7916 26.272 69.8281 40.9963 69.8281C55.7206 69.8281 67.8726 58.7916 69.618 44.539H54.1275C52.5694 50.3289 47.278 54.5883 40.9963 54.5883C34.7146 54.5883 29.4289 50.3289 27.8725 44.539H12.382Z" fill="#FEC08A"/>
</svg>
